<?xml version="1.0" standalone="no"?>
<!DOCTYPE svg PUBLIC "-//W3C//DTD SVG 20010904//EN"
 "http://www.w3.org/TR/2001/REC-SVG-20010904/DTD/svg10.dtd">
<svg version="1.0" xmlns="http://www.w3.org/2000/svg"
 width="800.000000pt" height="800.000000pt" viewBox="0 0 800.000000 800.000000"
 preserveAspectRatio="xMidYMid meet">
<metadata>
Created by potrace 1.14, written by Peter Selinger 2001-2017
</metadata>
<g transform="translate(0.000000,800.000000) scale(0.100000,-0.100000)"
fill="#000000" stroke="none">
<path d="M70 7995 c0 -3 64 -67 142 -143 177 -170 687 -680 828 -828 109 -114
363 -383 420 -444 134 -144 447 -467 722 -745 179 -181 325 -332 323 -334 -10
-9 -196 158 -399 358 -374 369 -612 611 -926 941 -391 412 -567 590 -1102
1109 l-78 76 0 -605 0 -605 57 -40 c31 -22 61 -45 67 -50 6 -6 56 -44 111 -86
206 -155 232 -175 330 -253 120 -95 132 -106 119 -106 -6 0 -43 25 -83 56 -68
52 -293 222 -351 265 -31 22 -149 108 -207 150 l-43 30 0 -274 0 -273 243
-154 c676 -428 1287 -853 1263 -878 -6 -6 -93 43 -366 206 -323 193 -490 290
-790 457 -146 81 -282 158 -302 171 -21 13 -40 24 -43 24 -3 0 -5 -203 -5
-450 l0 -450 28 -11 c15 -6 142 -42 282 -81 207 -57 539 -152 740 -211 19 -5
30 -12 24 -14 -11 -4 -542 124 -694 167 -36 10 -128 34 -205 54 -77 21 -148
39 -158 42 -16 5 -17 -8 -17 -170 l0 -175 52 -10 c29 -5 143 -26 253 -46 229
-41 446 -89 520 -116 69 -24 43 -23 -120 6 -129 23 -597 98 -672 107 l-33 5 0
-269 c0 -147 1 -268 3 -268 2 0 727 198 1612 440 885 241 1611 438 1612 436 2
-2 -43 -18 -99 -35 -674 -211 -1326 -446 -1973 -711 -171 -70 -353 -145 -405
-166 -100 -41 -126 -63 -290 -239 -70 -76 -132 -100 -318 -122 -91 -12 -132
-21 -132 -29 0 -7 5 -16 10 -19 6 -3 10 -28 10 -54 0 -66 26 -99 83 -103 l42
-3 -65 -24 c-36 -12 -71 -25 -79 -27 -18 -6 -9 -169 14 -241 l17 -53 106 1
c59 0 143 6 186 13 80 13 84 9 28 -23 -11 -6 -10 -13 2 -37 9 -16 24 -50 35
-76 28 -68 59 -81 189 -79 128 1 157 -12 239 -105 119 -137 156 -174 194 -191
21 -10 39 -21 39 -25 0 -4 -9 -31 -20 -60 -11 -28 -18 -53 -16 -55 1 -2 78 17
170 42 92 24 242 60 334 80 667 143 1198 303 1782 540 211 85 468 199 601 265
l75 38 63 -28 63 -27 96 29 c355 105 615 173 817 211 113 22 178 31 355 52 19
2 107 6 195 10 88 3 189 8 226 11 l65 5 1 -64 c0 -35 3 -75 6 -88 l6 -25
-2937 -801 -2937 -801 -3 -996 -2 -996 1169 0 c1124 0 1170 1 1183 18 11 15
86 104 133 156 6 6 51 56 100 111 107 118 96 107 164 184 53 62 73 73 50 29
-10 -20 -227 -311 -270 -363 -9 -11 -38 -46 -63 -78 l-46 -57 300 0 c277 0
301 1 307 18 55 154 228 561 249 581 28 28 -27 -215 -114 -501 l-29 -98 622 0
c342 0 624 2 626 4 3 3 -3 71 -12 153 -27 245 -29 264 -39 383 -15 173 -18
280 -8 286 4 3 8 3 8 -1 0 -3 18 -94 39 -203 22 -108 42 -215 46 -237 13 -86
17 -105 49 -240 l33 -140 742 -3 c408 -1 740 1 738 5 -14 22 -101 154 -128
193 -17 25 -52 79 -79 120 -26 41 -86 134 -133 206 -47 72 -99 156 -117 185
-17 30 -38 64 -47 76 -8 13 -11 23 -6 23 8 0 29 -29 94 -127 8 -12 82 -121
164 -243 83 -122 178 -264 212 -316 34 -53 67 -102 74 -110 10 -12 114 -14
693 -14 l681 1 -35 32 c-30 27 -127 113 -200 177 -9 8 -51 46 -92 83 -42 37
-87 77 -99 88 -13 11 -40 35 -59 52 -19 18 -69 61 -110 97 -41 36 -77 67 -80
70 -3 3 -39 34 -80 70 -41 36 -91 79 -110 97 -19 17 -45 40 -56 50 -123 106
-363 310 -389 331 -45 37 -140 117 -145 122 -3 3 -26 23 -53 44 -60 49 -54 58
10 15 50 -34 204 -149 213 -158 3 -3 41 -35 85 -71 44 -35 82 -67 85 -70 3 -3
57 -48 120 -100 63 -52 117 -97 120 -100 9 -9 85 -74 135 -115 27 -22 53 -45
59 -50 6 -6 79 -68 161 -139 83 -72 173 -150 200 -175 28 -25 84 -75 124 -111
41 -36 79 -69 85 -75 6 -5 45 -39 86 -75 41 -36 81 -71 88 -78 10 -9 81 -12
283 -12 l269 0 0 269 0 269 -37 23 c-92 56 -383 251 -389 261 -5 7 -2 8 7 3
24 -15 121 -76 174 -110 28 -18 94 -60 148 -93 l97 -61 0 232 0 232 -102 54
c-57 29 -155 81 -218 114 -450 234 -983 547 -964 566 5 5 86 -31 314 -142 102
-49 237 -114 300 -144 173 -83 623 -290 648 -297 l22 -7 0 385 0 386 -22 5
c-13 2 -124 23 -248 45 -282 51 -622 118 -628 125 -3 3 3 5 12 5 30 0 499 -75
854 -137 l32 -6 0 157 0 156 -27 0 c-16 1 -44 3 -63 5 -19 3 -125 14 -235 25
-223 23 -385 48 -400 63 -6 6 8 7 40 3 146 -17 674 -54 681 -47 2 2 4 128 4
278 l0 275 -192 -7 c-285 -10 -837 -11 -963 -2 -60 4 -153 10 -205 13 -182 10
-201 23 -74 50 153 33 325 57 569 79 102 10 667 106 805 138 l55 12 3 499 2
498 -22 -6 c-13 -3 -227 -61 -475 -129 l-453 -124 41 44 c63 68 91 139 97 244
l5 89 66 44 c36 24 122 77 191 117 90 52 145 92 196 143 59 59 114 136 114
160 0 3 -18 9 -40 12 -22 4 -40 10 -40 14 0 9 132 70 153 70 9 0 18 4 21 9 6
10 -28 178 -46 224 -12 31 -5 29 -123 31 -78 1 -100 6 -167 35 -43 18 -80 36
-82 40 -6 9 117 108 158 128 l33 15 -57 122 c-32 66 -71 163 -86 214 -22 72
-31 91 -43 87 -104 -32 -492 -87 -956 -135 -498 -52 -914 -129 -995 -185 -19
-13 -66 -52 -103 -86 -37 -34 -70 -59 -74 -56 -3 3 29 40 71 81 42 42 76 77
76 80 0 2 -15 1 -32 -4 -18 -4 -71 -16 -118 -25 -240 -50 -491 -115 -1080
-280 -412 -114 -764 -205 -900 -230 l-35 -7 46 30 c25 16 72 56 105 89 l59 60
2215 603 c1218 332 2230 607 2248 612 l32 9 0 844 0 845 -122 0 -123 0 -180
-172 c-99 -94 -342 -336 -540 -536 -758 -769 -1152 -1157 -1186 -1170 -25 -10
3 36 56 94 132 144 193 210 206 225 8 10 67 73 130 140 63 67 119 127 124 133
6 6 49 54 96 106 74 82 267 303 333 380 11 14 61 75 111 135 164 201 223 264
614 661 2 2 -266 4 -596 4 l-600 0 -58 -127 c-152 -336 -504 -1023 -563 -1098
-12 -15 -64 -114 -116 -219 -85 -173 -215 -412 -251 -460 -8 -11 -17 -17 -20
-14 -10 9 85 288 167 493 214 534 289 726 404 1040 69 187 129 350 134 363
l10 22 -495 0 c-272 0 -495 -3 -496 -7 0 -5 -2 -15 -3 -23 -2 -8 -7 -62 -11
-119 -4 -57 -8 -113 -10 -125 -2 -11 -6 -52 -10 -91 -7 -81 -43 -327 -49 -332
-12 -13 -16 80 -13 370 l4 327 -410 0 -409 0 7 -132 c4 -73 8 -139 10 -148 1
-8 6 -73 9 -145 4 -71 9 -148 11 -170 9 -88 22 -484 31 -928 6 -310 -2 -566
-16 -550 -8 8 -11 27 -26 173 -3 36 -8 72 -9 80 -3 17 -11 95 -25 260 -9 98
-25 226 -35 280 -8 43 -26 177 -35 270 -6 58 -13 116 -15 130 -2 14 -6 50 -10
80 -4 30 -8 66 -10 80 -2 14 -7 59 -10 100 -4 41 -8 77 -10 80 -2 3 -6 39 -10
80 -4 41 -8 77 -10 80 -1 3 -6 41 -10 85 -4 44 -8 82 -10 85 -2 3 -6 28 -9 55
-12 90 -17 120 -22 138 -5 16 -32 17 -394 17 l-388 0 28 -107 c15 -60 30 -130
33 -158 6 -44 5 -48 -7 -32 -17 22 -53 108 -92 220 l-27 77 -563 0 c-310 0
-564 -2 -564 -5 0 -7 32 -72 117 -235 39 -74 123 -238 188 -365 65 -126 197
-378 295 -560 97 -181 184 -343 192 -360 145 -280 209 -408 205 -411 -6 -6
-25 26 -98 158 -30 54 -67 122 -84 152 -66 120 -282 513 -316 575 -78 145
-124 230 -166 311 -154 293 -202 384 -292 550 l-100 185 -910 3 c-501 1 -911
0 -911 -3z m7177 -2527 c-6 -155 -26 -302 -50 -361 l-13 -32 -37 63 c-51 88
-104 155 -109 140 -3 -7 -6 -35 -7 -63 -5 -125 -47 -335 -66 -335 -6 0 -33
-11 -58 -24 l-45 -24 -22 91 c-20 79 -96 362 -130 480 -6 22 -13 37 -15 35 -2
-2 -9 -37 -16 -77 -6 -41 -17 -90 -24 -110 l-12 -36 -13 45 c-34 124 -77 290
-75 290 25 0 477 45 550 54 55 7 111 14 124 15 l24 1 -6 -152z m-771 7 c12
-33 51 -132 84 -220 34 -88 66 -167 70 -175 6 -11 16 2 36 48 14 34 30 62 34
62 4 0 10 -15 13 -32 3 -18 22 -111 42 -207 19 -96 34 -175 33 -176 -130 -88
-164 -114 -192 -145 -18 -20 -38 -45 -43 -54 -7 -13 -15 -14 -43 -6 -96 28
-307 -5 -395 -61 -28 -18 -60 -52 -86 -91 -36 -57 -48 -67 -127 -107 -152 -77
-283 -119 -472 -151 -107 -18 -99 -24 30 -21 132 3 288 45 421 111 l76 38 -24
-81 c-13 -45 -31 -138 -41 -206 -15 -115 -18 -124 -42 -134 -16 -7 -116 -12
-275 -12 -316 -2 -510 -27 -375 -50 22 -4 40 -10 40 -14 0 -4 -50 -15 -110
-24 -207 -31 -526 -110 -929 -231 l-85 -25 -58 25 c-31 13 -63 24 -71 24 -7 0
-130 -48 -272 -106 -671 -272 -1268 -476 -1828 -623 -122 -32 -238 -61 -257
-64 l-35 -6 37 19 c38 21 65 49 35 37 -84 -32 -352 -55 -500 -42 -108 9 -135
25 -200 123 -75 113 -145 154 -326 188 -50 10 -91 20 -91 23 0 3 44 34 97 68
l97 61 -34 9 -34 9 83 58 c45 32 80 60 78 62 -2 2 -97 -8 -211 -22 -114 -15
-208 -25 -210 -23 -2 2 -6 16 -10 31 -5 24 -1 29 68 67 99 54 289 182 282 189
-8 7 -49 10 -171 11 -93 1 -98 2 -77 17 12 8 22 18 22 22 0 4 -42 6 -92 4 -55
-2 -89 0 -83 6 6 4 40 32 77 61 37 29 89 77 116 108 l49 56 33 -59 c72 -127
323 -484 340 -484 5 0 20 21 33 46 l23 46 80 -104 c44 -57 132 -169 195 -250
63 -82 118 -148 122 -148 5 0 6 19 3 43 -4 23 -13 137 -21 252 -8 116 -17 237
-20 270 -21 250 -25 318 -21 322 2 2 7 -5 11 -18 6 -17 9 -19 16 -8 5 8 9 25
9 39 0 27 47 214 79 314 18 59 19 60 72 78 167 57 482 88 829 83 340 -5 521
-41 765 -150 208 -94 256 -108 343 -103 60 4 81 10 114 34 66 46 109 162 88
234 -5 14 -8 18 -9 9 -1 -9 -15 -44 -32 -78 -38 -76 -74 -101 -144 -101 -72 0
-111 13 -285 95 -223 106 -364 140 -615 152 -285 12 -792 -45 -1023 -116 l-64
-20 7 27 c4 15 7 27 8 28 3 2 433 165 572 218 280 104 1120 396 1143 396 3 0
-28 -23 -69 -51 -116 -79 -117 -82 -34 -75 39 4 84 10 102 13 32 5 32 4 83
-97 42 -83 147 -259 167 -280 3 -3 26 19 52 47 39 44 74 96 158 242 6 9 43
-44 118 -165 133 -218 243 -388 254 -392 9 -3 107 133 147 205 28 51 44 66 44
41 0 -25 56 -82 104 -104 161 -75 381 25 579 264 39 48 155 205 255 349 214
305 263 361 374 436 83 56 84 56 233 81 124 21 281 41 535 69 93 11 100 7 126
-58z m-1268 -235 c-46 -67 -89 -130 -97 -141 -14 -19 -13 -20 15 -8 16 7 33
16 39 21 5 4 15 8 23 8 8 0 -2 -19 -25 -47 -22 -27 -95 -122 -163 -213 -204
-271 -346 -396 -496 -435 -77 -20 -90 -19 -149 9 -80 37 -82 43 -46 129 16 41
41 111 54 157 13 45 27 79 30 74 3 -5 15 -64 28 -131 12 -68 26 -123 30 -123
3 0 22 19 41 43 112 137 178 272 233 474 18 69 38 130 44 136 5 5 124 45 263
87 139 43 254 78 256 79 2 0 -34 -53 -80 -119z m-535 -172 c-43 -140 -66 -195
-116 -278 -77 -131 -67 -136 -117 57 -24 92 -47 172 -51 177 -4 4 -13 -18 -19
-50 -18 -88 -68 -229 -112 -319 -42 -84 -137 -233 -162 -254 -16 -14 -63 39
-266 299 -62 80 -117 149 -121 154 -5 5 -18 -12 -29 -40 -48 -113 -158 -291
-171 -276 -9 10 -84 208 -103 270 l-15 52 28 0 c26 0 30 -6 56 -77 52 -147 82
-160 70 -29 -3 44 -9 90 -11 102 -5 19 3 22 83 39 48 9 153 33 231 51 79 19
147 34 151 34 3 0 17 -53 30 -117 13 -65 30 -140 38 -168 26 -86 37 -33 30
151 l-5 163 32 7 c51 11 549 154 554 159 3 3 11 5 18 5 8 0 1 -35 -23 -112z
m2470 -40 c18 -37 36 -67 40 -67 4 -1 20 26 35 59 22 48 33 62 60 70 48 17 55
9 28 -31 l-25 -36 39 13 c52 18 164 29 184 17 13 -7 -2 -21 -80 -72 -52 -34
-93 -65 -90 -69 3 -3 36 -10 73 -16 65 -11 69 -13 88 -51 30 -60 28 -201 -4
-272 l-23 -52 -89 110 c-101 123 -165 178 -258 222 l-63 30 6 51 c3 28 9 84
13 125 7 86 11 84 66 -31z m-72 -233 c62 -22 162 -99 264 -206 l87 -92 -79
-46 c-43 -25 -96 -58 -117 -73 -40 -28 -56 -28 -56 -2 0 20 -40 97 -47 91 -3
-3 0 -58 6 -122 13 -128 4 -210 -29 -275 -26 -51 -112 -127 -176 -157 -100
-45 -227 -42 -251 8 -21 43 -83 409 -83 487 l0 75 43 40 c23 22 73 55 112 73
58 28 64 34 40 34 -17 -1 -47 -7 -67 -14 -21 -8 -38 -12 -38 -10 0 3 245 175
275 192 28 16 63 15 116 -3z m-576 -290 c18 -4 20 -13 21 -102 0 -54 9 -138
18 -186 10 -49 16 -90 14 -91 -2 -1 -15 -7 -30 -13 -24 -11 -27 -10 -30 10 -9
51 -29 -64 -34 -193 -8 -193 -4 -186 -92 -205 -32 -7 -33 -6 -23 13 17 32 13
69 -15 127 -41 88 -123 145 -207 145 -43 0 -115 -39 -137 -75 -26 -41 -26 -55
0 -23 44 57 139 74 210 38 42 -21 70 -56 99 -121 23 -50 12 -96 -22 -104 -119
-25 -247 -58 -247 -62 0 -3 28 -3 63 0 l62 6 -100 -29 c-55 -16 -101 -30 -102
-30 -1 0 -5 21 -9 48 -12 80 41 491 67 517 5 5 46 22 92 37 l82 28 -77 -3
c-43 -2 -78 0 -78 5 0 42 66 85 145 94 50 6 55 9 34 16 -13 5 -47 8 -76 6
l-51 -3 16 29 c38 66 136 111 270 125 63 6 89 5 137 -4z m-5071 -272 c-13 -38
-33 -109 -45 -159 l-22 -90 -31 28 -31 29 -3 -371 c-1 -203 -5 -370 -8 -370
-3 0 -62 54 -131 120 -69 66 -131 120 -139 120 -7 0 -22 -17 -32 -37 l-19 -37
-55 75 c-68 93 -193 276 -237 349 l-33 54 28 22 c15 13 98 52 183 87 86 36
253 106 371 155 118 50 218 91 221 91 3 1 -5 -29 -17 -66z m5166 -285 c12 -63
39 -104 79 -120 14 -6 22 -12 16 -14 -5 -2 -49 -14 -97 -27 l-88 -25 0 127 0
127 33 16 c37 18 37 18 57 -84z m-756 -981 c42 -41 76 -79 76 -84 0 -6 -11
-13 -24 -15 -20 -4 -39 10 -107 78 -82 83 -84 88 -32 93 6 0 46 -32 87 -72z
m-59 -77 c61 -62 75 -80 62 -85 -9 -3 -23 -7 -31 -9 -7 -2 -50 33 -96 79 -84
85 -86 90 -30 94 9 0 51 -35 95 -79z m-27 -122 c-80 -226 -90 -246 -122 -251
-17 -4 -41 -9 -53 -13 -22 -6 -22 -5 9 80 17 48 29 88 27 91 -2 2 -118 -8
-257 -22 -139 -14 -255 -23 -257 -21 -2 2 -7 22 -11 44 l-6 40 229 23 c125 13
255 27 288 31 100 13 158 12 153 -2z m-1208 -168 c-11 -16 -110 -145 -220
-287 -110 -142 -196 -261 -192 -265 4 -4 154 -67 335 -141 180 -74 330 -136
333 -139 3 -3 -28 -14 -70 -24 l-75 -17 -278 113 c-357 145 -350 141 -359 185
-5 29 -1 42 22 73 64 85 368 478 379 490 12 13 94 39 128 41 17 1 17 -1 -3
-29z m-1565 -453 c6 -45 7 -47 33 -41 32 7 320 83 343 89 19 6 48 -73 30 -84
-5 -4 -95 -29 -198 -55 -103 -27 -191 -52 -195 -55 -4 -3 0 -134 7 -291 8
-157 15 -314 15 -350 l0 -66 -42 -11 c-24 -6 -44 -11 -44 -10 -2 2 -34 651
-34 683 l0 22 -91 -23 c-99 -25 -100 -25 -103 36 -1 31 1 33 54 46 30 8 72 19
93 24 l37 10 0 63 0 63 43 9 c28 6 43 6 44 -1 1 -5 5 -31 8 -58z m3004 -8 c7
-23 10 -43 7 -47 -7 -6 -667 -180 -717 -188 l-36 -6 -22 83 c-12 46 -24 91
-27 100 -3 12 4 18 23 22 16 3 35 8 45 12 13 5 19 -5 32 -49 12 -41 21 -56 34
-55 9 0 157 38 327 84 171 45 313 83 316 84 3 1 11 -17 18 -40z m-2409 -251
l-38 -103 -47 -13 c-26 -8 -49 -12 -51 -9 -2 2 5 30 17 61 12 31 19 59 16 62
-3 3 -51 1 -107 -5 -151 -16 -146 -17 -158 29 -5 22 -7 40 -3 41 3 0 80 8 171
18 91 10 181 19 201 20 l37 1 -38 -102z m153 -337 c4 -18 5 -37 0 -41 -9 -9
-473 -130 -496 -130 -14 0 -43 68 -33 78 9 8 483 130 500 129 13 -1 23 -13 29
-36z"/>
<path d="M6026 5249 c-182 -25 -399 -101 -549 -192 -241 -146 -450 -386 -545
-627 -50 -125 -47 -129 19 -25 66 106 155 225 168 225 5 0 24 -26 44 -57 85
-138 229 -229 392 -248 68 -8 181 17 254 55 65 35 150 115 188 176 89 146 82
361 -16 516 l-30 47 27 5 c90 18 175 27 315 33 l157 6 0 -40 c0 -59 -26 -199
-50 -267 -11 -33 -18 -61 -16 -63 8 -8 57 65 87 132 35 78 59 177 59 251 l0
50 -62 13 c-81 16 -353 23 -442 10z m-95 -225 c94 -182 64 -386 -75 -510 -68
-61 -131 -92 -219 -106 -63 -9 -84 -9 -143 6 -38 10 -94 33 -124 51 -63 38
-158 133 -184 184 l-18 33 43 44 43 44 26 -57 c34 -74 79 -128 93 -114 29 29
76 -3 57 -38 -9 -18 -5 -23 42 -47 71 -36 163 -39 228 -7 109 54 171 154 178
289 l4 80 -33 -4 c-77 -9 -121 81 -63 127 15 12 33 21 41 21 10 0 11 4 3 19
-15 29 -12 41 13 51 39 16 51 7 88 -66z m-93 -203 c8 -4 12 -19 10 -32 -2 -19
-9 -24 -33 -24 -24 0 -31 5 -33 24 -4 23 11 41 33 41 6 0 16 -4 23 -9z"/>
<path d="M3915 4365 c19 -61 24 -151 13 -220 -5 -32 -6 -60 -3 -63 2 -3 14 17
26 43 29 65 24 181 -11 243 -31 55 -41 53 -25 -3z"/>
<path d="M4265 4329 c22 -60 49 -101 100 -148 38 -35 81 -61 101 -61 3 0 -20
25 -49 56 -30 30 -77 86 -103 124 -27 38 -52 69 -56 70 -4 0 -1 -19 7 -41z"/>
<path d="M2280 4245 c-237 -38 -471 -139 -659 -282 -40 -31 -75 -63 -78 -70
-7 -18 38 -92 97 -156 54 -60 133 -117 195 -143 39 -16 38 -15 -40 67 -44 46
-98 110 -120 143 l-40 58 23 18 c48 39 316 167 409 195 22 6 23 4 17 -38 -17
-124 53 -305 154 -399 102 -94 217 -134 356 -125 182 11 326 114 404 287 27
61 50 175 47 233 -1 20 2 37 8 37 13 0 187 -74 234 -101 21 -11 53 -30 71 -41
56 -34 45 -14 -21 39 -171 137 -334 215 -552 264 -118 27 -383 34 -505 14z
m688 -145 c15 0 16 -105 1 -170 -17 -73 -68 -167 -122 -222 -161 -162 -429
-156 -581 13 -78 86 -115 188 -116 310 0 63 1 67 25 73 35 9 45 1 45 -36 0
-44 29 -155 52 -203 30 -59 38 -67 54 -54 19 16 58 7 62 -14 2 -10 -4 -27 -13
-36 -15 -17 -13 -20 33 -50 134 -86 301 -53 382 76 36 56 36 59 9 66 -16 4
-20 12 -17 34 3 24 7 28 36 28 18 0 32 5 32 12 0 6 3 18 6 26 4 11 -4 14 -36
13 -49 -1 -80 28 -80 73 0 34 40 74 74 74 15 0 26 3 26 7 0 5 26 2 58 -6 31
-7 63 -13 70 -14z"/>
<path d="M3022 3509 c-222 -89 -504 -127 -744 -101 -37 5 -65 5 -62 1 9 -15
153 -41 257 -46 194 -10 384 31 547 118 121 65 122 76 2 28z"/>
<path d="M6724 4361 c-46 -21 -89 -71 -99 -116 -6 -28 -5 -27 19 12 45 71 141
102 219 69 41 -17 117 -102 117 -130 0 -33 -11 -43 -85 -77 -136 -60 -177 -81
-172 -85 4 -5 175 46 227 69 90 38 98 112 21 199 -63 72 -164 96 -247 59z"/>
<path d="M6205 7928 c-16 -40 -70 -172 -121 -292 -52 -121 -92 -221 -90 -223
2 -2 30 56 64 129 33 73 94 206 136 296 61 133 71 162 57 162 -13 0 -26 -20
-46 -72z"/>
<path d="M5977 7393 c-4 -3 -7 -11 -7 -17 0 -6 5 -5 12 2 6 6 9 14 7 17 -3 3
-9 2 -12 -2z"/>
</g>
</svg>
